<?xml version="1.0" standalone="no"?>
<!DOCTYPE svg PUBLIC "-//W3C//DTD SVG 20010904//EN"
 "http://www.w3.org/TR/2001/REC-SVG-20010904/DTD/svg10.dtd">
<svg version="1.0" xmlns="http://www.w3.org/2000/svg"
 width="324.000000pt" height="324.000000pt" viewBox="0 0 324.000000 324.000000"
 preserveAspectRatio="xMidYMid meet">
<metadata>
Created by potrace 1.11, written by Peter Selinger 2001-2013
</metadata>
<g transform="translate(0.000000,324.000000) scale(0.100000,-0.100000)"
fill="#000000" stroke="none">
<path d="M1440 3210 c-1054 -127 -1696 -1214 -1297 -2195 203 -499 628 -851
1167 -966 143 -31 445 -33 595 -5 579 108 1048 515 1234 1071 61 182 75 279
75 505 0 175 -3 220 -23 310 -48 225 -143 443 -268 620 -86 121 -251 286 -373
372 -182 129 -433 235 -650 273 -113 20 -355 27 -460 15z m465 -1005 l218
-585 329 0 328 0 0 -140 0 -140 -275 0 c-151 0 -275 -4 -275 -8 0 -5 11 -35
24 -68 14 -33 51 -134 84 -224 33 -91 89 -244 124 -340 89 -240 87 -226 37
-234 -23 -4 -99 -4 -170 0 l-128 7 -25 71 c-13 39 -137 403 -275 809 -138 406
-254 743 -257 749 -3 5 -10 6 -15 1 -4 -4 -127 -348 -272 -763 -146 -415 -274
-780 -286 -812 l-22 -56 -84 -7 c-47 -4 -123 -4 -170 0 l-85 7 6 26 c7 31 69
192 217 572 l104 265 -279 3 -278 2 0 140 0 140 203 1 c111 1 262 4 335 8
l134 6 122 310 c67 171 169 430 226 578 l105 267 41 0 41 0 218 -585z"/>
</g>
</svg>
